<svg width="10" height="17" viewBox="0 0 10 17" fill="none" xmlns="http://www.w3.org/2000/svg">
<path d="M0.206474 9.0279C0.0948674 8.91629 0.039064 8.78795 0.039064 8.64286C0.039064 8.49777 0.0948674 8.36942 0.206474 8.25781L8.00781 0.456473C8.11942 0.344866 8.24777 0.289062 8.39286 0.289062C8.53795 0.289062 8.6663 0.344866 8.7779 0.456473L9.61496 1.29353C9.72656 1.40513 9.78237 1.53348 9.78237 1.67857C9.78237 1.82366 9.72656 1.95201 9.61496 2.06362L3.03572 8.64286L9.61496 15.2221C9.72656 15.3337 9.78237 15.4621 9.78237 15.6071C9.78237 15.7522 9.72656 15.8806 9.61496 15.9922L8.7779 16.8292C8.6663 16.9408 8.53795 16.9967 8.39286 16.9967C8.24777 16.9967 8.11942 16.9408 8.00781 16.8292L0.206474 9.0279Z" fill="white"/>
</svg>
