<svg width="10" height="17" viewBox="0 0 10 17" fill="none" xmlns="http://www.w3.org/2000/svg">
<path d="M9.79353 7.9721C9.90513 8.0837 9.96094 8.21205 9.96094 8.35714C9.96094 8.50223 9.90513 8.63058 9.79353 8.74219L1.99219 16.5435C1.88058 16.6551 1.75223 16.7109 1.60714 16.7109C1.46205 16.7109 1.33371 16.6551 1.2221 16.5435L0.385045 15.7065C0.273438 15.5949 0.217634 15.4665 0.217634 15.3214C0.217634 15.1763 0.273438 15.048 0.385045 14.9364L6.96429 8.35714L0.385045 1.7779C0.273438 1.66629 0.217634 1.53795 0.217634 1.39286C0.217634 1.24777 0.273438 1.11942 0.385045 1.00781L1.2221 0.170758C1.33371 0.0591503 1.46205 0.00334668 1.60714 0.00334668C1.75223 0.00334668 1.88058 0.0591503 1.99219 0.170758L9.79353 7.9721Z" fill="white"/>
</svg>
